<svg xmlns="http://www.w3.org/2000/svg" xmlns:xlink="http://www.w3.org/1999/xlink" version="1.1" id="Layer_1" x="0px" y="0px" width="100%" viewBox="0 0 5632 3072" enable-background="new 0 0 5632 3072" xml:space="preserve" style="&#10;    background: transparent;&#10;">

<path fill="#FFFFFF" opacity="1.000000" stroke="none" d=" M2838.727051,2015.974854   C2879.913818,1996.715332 2919.682373,1978.106689 2959.401855,1959.394043   C3005.148926,1937.841919 3050.847168,1916.186401 3096.578125,1894.599243   C3120.031738,1883.528076 3143.180908,1871.724121 3167.078125,1861.707153   C3186.964111,1853.371216 3194.825439,1839.904907 3194.728760,1818.482300   C3194.308594,1725.193359 3194.920410,1631.900146 3195.062988,1538.608276   C3195.165039,1471.969727 3195.187744,1405.330688 3195.041992,1338.692383   C3195.024658,1330.757568 3193.894287,1322.805786 3192.966553,1314.898560   C3192.121826,1307.696777 3188.022461,1302.574219 3181.436523,1299.740112   C3175.343018,1297.117798 3169.163818,1294.603516 3162.840820,1292.621216   C3136.814697,1284.461426 3110.708984,1276.556152 3084.661133,1268.464966   C3080.909668,1267.299683 3077.313965,1265.631348 3072.661133,1263.810303   C3071.903809,1247.182129 3071.155029,1230.744263 3070.336670,1212.772339   C3074.466064,1213.625366 3077.470215,1214.061401 3080.368896,1214.872925   C3113.041016,1224.018066 3145.718262,1233.144531 3178.341553,1242.460938   C3186.630127,1244.827759 3194.831299,1247.584595 3202.902100,1250.615845   C3229.929199,1260.766724 3240.760498,1282.468750 3244.021729,1309.293091   C3244.581543,1313.895996 3244.247314,1318.613281 3244.249023,1323.277710   C3244.308105,1491.219482 3244.304443,1659.161377 3244.490967,1827.103027   C3244.509766,1844.087036 3242.566406,1860.205933 3232.413330,1874.548462   C3223.701660,1886.854980 3212.290527,1895.731812 3198.914062,1902.246216   C3182.760498,1910.113159 3166.518799,1917.799927 3150.308594,1925.549805   C3057.238037,1970.046753 2964.185059,2014.580078 2871.073730,2058.991699   C2856.071045,2066.147705 2840.806641,2072.756104 2824.890625,2079.967529   C2811.905273,2073.849365 2798.667725,2067.697754 2785.502686,2061.395264   C2729.675049,2034.669922 2673.924805,2007.782227 2618.038330,1981.180786   C2568.164551,1957.441284 2518.116943,1934.066895 2468.223145,1910.369141   C2458.622803,1905.809204 2449.214355,1900.783569 2440.002686,1895.478027   C2415.808105,1881.543335 2405.319580,1859.604248 2404.407715,1832.504395   C2404.049561,1821.855957 2404.495361,1811.182129 2404.493408,1800.519775   C2404.463135,1648.572510 2404.412842,1496.625366 2404.390381,1344.678101   C2404.388916,1334.015991 2404.155762,1323.331665 2404.734375,1312.696045   C2406.368896,1282.644043 2420.377441,1260.962524 2448.875977,1249.711914   C2456.908447,1246.540894 2465.136963,1243.786011 2473.430420,1241.372681   C2506.014893,1231.890503 2538.655029,1222.599609 2571.300049,1213.327515   C2573.116211,1212.811646 2575.160889,1213.101807 2576.940430,1213.023804   C2577.732178,1214.411377 2578.872559,1215.483398 2578.880615,1216.564087   C2578.997070,1231.872437 2578.959961,1247.182007 2578.959961,1263.499878   C2574.810791,1265.208496 2570.735107,1267.267456 2566.434082,1268.595459   C2540.351807,1276.648682 2514.184570,1284.427612 2488.125732,1292.554688   C2481.811523,1294.524048 2475.658936,1297.166260 2469.679688,1300.018555   C2461.094238,1304.114136 2456.952637,1311.433472 2456.404541,1320.767334   C2456.131592,1325.418091 2456.261475,1330.094238 2456.260254,1334.758911   C2456.220215,1496.036621 2456.611328,1657.316772 2455.675049,1818.589233   C2455.541260,1841.615234 2464.137695,1853.952881 2484.205566,1863.078735   C2550.810303,1893.367188 2616.972168,1924.632935 2683.182617,1955.782104   C2721.696533,1973.901001 2759.969971,1992.530273 2798.374512,2010.882446   C2803.174561,2013.176147 2808.415771,2014.681274 2812.924072,2017.421509   C2821.423340,2022.587524 2829.331787,2021.591919 2838.727051,2015.974854  z"/>
<path fill="#FFFFFF" opacity="1.000000" stroke="none" d=" M2766.312988,1430.690918   C2770.417969,1433.268921 2773.121582,1435.109009 2776.797119,1437.610718   C2763.610107,1519.585815 2745.806641,1600.734863 2730.926758,1683.203491   C2747.603271,1686.305542 2763.487061,1684.332642 2779.260498,1684.623291   C2794.577393,1684.905518 2809.902344,1684.786865 2825.223633,1684.798218   C2841.211182,1684.809937 2857.198730,1684.826660 2873.186035,1684.730347   C2888.316650,1684.639282 2903.473389,1684.982666 2919.271973,1684.362549   C2903.335693,1601.040039 2886.758057,1519.700928 2873.566650,1437.416138   C2882.270508,1431.238892 2890.804932,1426.805176 2901.248535,1423.183105   C2908.430420,1445.057739 2910.158936,1466.913696 2914.882812,1488.079102   C2919.662354,1509.492554 2923.655273,1531.083374 2927.873535,1552.619751   C2932.093018,1574.160034 2936.132080,1595.735352 2940.312012,1617.283325   C2944.487061,1638.805908 2948.739502,1660.313599 2952.843750,1681.245117   C2957.637207,1686.328247 2963.272705,1684.804565 2968.405029,1684.821655   C3002.378174,1684.935303 3036.352051,1684.792725 3070.325195,1684.902222   C3076.856689,1684.923218 3083.625488,1683.644775 3090.604492,1687.145508   C3103.160889,1735.060425 3115.773193,1783.188354 3128.277344,1830.903320   C3114.350342,1841.040283 2878.437500,1953.834839 2824.079102,1976.473022   C2724.393555,1929.329956 2623.543457,1881.635986 2522.015869,1833.621582   C2522.875977,1816.470459 2529.444824,1801.014648 2533.111084,1784.991699   C2536.964111,1768.153442 2542.169189,1751.627686 2546.633057,1734.925293   C2550.907715,1718.929077 2554.989014,1702.881348 2559.412109,1685.868530   C2570.982422,1683.840942 2582.211914,1685.195679 2593.318115,1684.967773   C2604.637939,1684.735474 2615.966309,1684.911743 2627.290771,1684.889404   C2637.948975,1684.868530 2648.607422,1684.807373 2659.265625,1684.790649   C2670.557617,1684.772949 2681.849854,1684.786621 2694.309570,1684.786621   C2695.994873,1679.785400 2698.192871,1675.075439 2699.158691,1670.125000   C2714.313965,1592.429810 2729.294189,1514.700562 2744.394531,1436.994629   C2745.138916,1433.163452 2746.611572,1429.473877 2747.799316,1425.538818   C2754.749512,1423.712036 2759.289551,1429.045288 2766.312988,1430.690918  M2647.329834,1854.569580   C2671.420410,1865.858521 2695.604736,1876.952271 2719.578369,1888.484375   C2751.966797,1904.063965 2784.185791,1919.994751 2816.503418,1935.721924   C2818.867188,1936.872314 2821.439941,1937.593384 2824.416992,1938.700684   C2909.268066,1899.100830 2994.255127,1859.449829 3079.212646,1819.735352   C3082.130127,1818.371582 3084.749023,1816.368408 3087.890625,1814.426270   C3086.988525,1797.728394 3080.303711,1783.002808 3076.488037,1767.650757   C3072.510010,1751.647095 3069.228516,1735.380005 3063.021484,1720.206665   C3060.235840,1719.714478 3058.297119,1719.071167 3056.358643,1719.072388   C2901.045654,1719.166504 2745.732422,1719.310425 2590.419434,1719.472168   C2589.773193,1719.472778 2589.079102,1719.683228 2588.494873,1719.972656   C2587.915771,1720.259766 2587.447754,1720.770996 2586.930908,1721.183960   C2572.044678,1765.951050 2563.382080,1800.539551 2563.440674,1815.934937   C2590.258057,1828.244995 2617.444092,1840.724121 2647.329834,1854.569580  z"/>
<path fill="#FFFFFF" opacity="1.000000" stroke="none" d=" M2043.961670,1636.000000   C2044.090698,1526.026245 2044.244019,1418.052368 2044.323120,1310.078613   C2044.330444,1300.043457 2044.466431,1290.089111 2048.018311,1280.516846   C2053.776367,1264.999390 2069.198486,1247.414429 2094.495605,1250.921509   C2120.884766,1254.579834 2147.405762,1257.306641 2173.888916,1260.262207   C2190.082764,1262.069336 2200.772949,1270.907104 2207.041748,1285.523682   C2207.756104,1287.189331 2207.307617,1289.353760 2207.417725,1291.695801   C2195.869629,1291.695801 2184.646484,1291.388184 2173.447510,1291.778198   C2161.013916,1292.211182 2152.018555,1298.512207 2146.782227,1309.736938   C2145.135498,1313.266602 2144.038574,1317.228516 2143.587891,1321.097290   C2142.974365,1326.368774 2143.121582,1331.740234 2143.113525,1337.069092   C2142.885498,1487.031616 2142.679199,1636.994263 2142.465088,1786.956787   C2142.462158,1788.955444 2142.287109,1790.960205 2142.389160,1792.951904   C2143.354736,1811.846436 2153.451416,1824.030029 2172.022705,1827.820557   C2179.166260,1829.278687 2186.575439,1829.417969 2193.854248,1830.238770   C2197.022705,1830.595947 2200.167725,1831.155762 2204.916260,1831.859619   C2195.186768,1848.465088 2184.154785,1859.375000 2164.750488,1856.994507   C2156.821289,1856.021973 2148.860107,1855.216919 2140.989014,1853.887817   C2126.537842,1851.447632 2112.236328,1847.849854 2097.705811,1846.205933   C2062.515381,1842.224365 2043.279541,1819.460327 2043.907959,1781.962524   C2044.711792,1733.988159 2044.015503,1685.988647 2043.961670,1636.000000  z"/>
<path fill="#FFFFFF" opacity="1.000000" stroke="none" d=" M3507.640137,1548.000000   C3507.601074,1478.719849 3507.572021,1411.439697 3507.511963,1344.159546   C3507.505859,1337.499512 3507.778076,1330.792725 3507.113037,1324.188843   C3505.194580,1305.135986 3494.003662,1293.793457 3474.997314,1292.252075   C3465.091064,1291.448730 3455.065918,1292.110474 3445.575195,1292.110474   C3441.361328,1286.652832 3444.670898,1282.913452 3446.713135,1278.927368   C3449.840332,1272.824097 3453.982666,1267.515503 3460.420654,1264.989990   C3465.948486,1262.821411 3471.812012,1261.032349 3477.680908,1260.289673   C3504.100830,1256.945923 3530.543457,1253.709106 3557.040527,1251.063843   C3581.079346,1248.663818 3600.195801,1263.400757 3604.207764,1287.150635   C3605.530762,1294.983521 3605.820312,1303.065918 3605.828857,1311.035034   C3605.961914,1434.938599 3605.958252,1558.842285 3606.017822,1682.745972   C3606.032227,1712.722168 3606.232666,1742.698486 3606.187256,1772.674438   C3606.175049,1780.658569 3605.906494,1788.672607 3605.174805,1796.619507   C3603.016357,1820.073608 3589.927002,1837.925903 3567.628906,1843.010864   C3541.729736,1848.917236 3515.196045,1851.999390 3489.003906,1856.678467   C3474.393555,1859.288940 3462.985596,1853.953979 3453.196045,1843.807983   C3450.034668,1840.531128 3447.217773,1836.921875 3442.917236,1831.923218   C3447.659668,1831.004028 3450.621094,1830.168091 3453.632812,1829.899780   C3460.263428,1829.308472 3466.976318,1829.415405 3473.554932,1828.507446   C3496.390625,1825.355591 3507.431641,1812.859863 3507.473633,1789.816040   C3507.618896,1709.877563 3507.598877,1629.938721 3507.640137,1548.000000  z"/>
<path fill="#FFFFFF" opacity="1.000000" stroke="none" d=" M2709.351074,1108.384155   C2608.366455,1111.123657 2509.263428,1113.828613 2408.683105,1116.573853   C2408.503662,1108.820068 2408.166748,1101.728638 2408.225342,1094.640625   C2408.279541,1088.066772 2408.755859,1081.496338 2408.989990,1076.198486   C2410.304688,1074.436401 2410.616943,1073.789673 2411.125977,1073.400757   C2411.623779,1073.020264 2412.311035,1072.733765 2412.933838,1072.693115   C2525.954590,1065.327026 2639.150879,1062.822388 2752.356934,1061.220093   C2910.952393,1058.975342 3069.351074,1065.903687 3227.734131,1072.905640   C3230.374756,1073.022339 3233.026367,1073.530884 3235.604492,1074.144653   C3236.815430,1074.432983 3237.863281,1075.407471 3238.984375,1076.072021   C3241.127686,1093.565430 3240.531006,1163.446167 3237.969482,1179.513672   C3224.020264,1175.638672 3216.876465,1164.087769 3208.486816,1154.239014   C3199.936279,1144.201660 3201.318848,1130.431519 3197.040283,1119.306519   C3163.417480,1111.933594 2908.286621,1106.279297 2709.351074,1108.384155  z"/>
<path fill="#FFFFFF" opacity="1.000000" stroke="none" d=" M2938.691406,1307.628418   C2938.889404,1304.382202 2939.061523,1303.050903 2939.040283,1301.722656   C2938.855957,1290.258423 2936.262695,1287.326294 2925.517578,1287.140015   C2911.938477,1286.904663 2898.666016,1289.473267 2887.184570,1296.549194   C2875.337158,1303.850586 2864.450439,1312.752808 2853.434082,1321.328125   C2850.998535,1323.223755 2849.784912,1326.688599 2847.859863,1329.660400   C2857.422607,1356.405884 2873.574463,1379.572021 2884.275635,1406.628662   C2881.717529,1408.503540 2878.898926,1411.231934 2875.553223,1412.905884   C2861.877686,1419.747192 2848.053711,1426.292114 2834.256348,1432.887939   C2830.023193,1434.911743 2825.590820,1437.032227 2820.894775,1434.733154   C2803.008301,1425.976074 2785.199463,1417.059692 2767.386230,1408.153931   C2766.877930,1407.899902 2766.643799,1407.098267 2766.266113,1406.528198   C2775.161133,1378.933350 2795.453369,1356.099243 2800.612305,1326.115112   C2785.887939,1313.238525 2770.873047,1301.312500 2753.660889,1292.496704   C2744.565186,1287.838013 2734.469482,1287.031128 2724.414551,1287.373779   C2714.644287,1287.706665 2710.693604,1292.544800 2711.551514,1301.121216   C2712.280273,1308.405151 2712.131592,1315.776001 2712.838867,1323.062866   C2715.362305,1349.071289 2728.718018,1362.184448 2754.974609,1364.809692   C2756.897949,1365.001953 2758.788086,1365.527344 2761.334717,1366.022583   C2760.566162,1368.853271 2760.296143,1371.529419 2759.152832,1373.757446   C2754.940918,1381.966309 2750.440186,1390.026733 2745.853516,1398.502197   C2730.706055,1397.223511 2719.376221,1388.437378 2706.805908,1382.985596   C2694.681152,1377.727295 2682.778320,1371.957031 2670.504883,1366.285400   C2670.504883,1339.385742 2670.504883,1313.612427 2670.504883,1287.038452   C2675.488037,1284.705933 2680.054443,1282.046509 2684.956299,1280.362915   C2708.226074,1272.369629 2731.653564,1264.831421 2754.879150,1256.714722   C2762.717041,1253.975586 2768.720459,1255.698486 2775.150879,1260.532104   C2791.056396,1272.488159 2807.400391,1283.861084 2824.158691,1295.892334   C2841.045166,1283.926025 2857.857178,1272.205444 2874.433838,1260.160645   C2880.178711,1255.986206 2885.648193,1253.784180 2892.887207,1256.297363   C2919.902344,1265.676880 2947.047119,1274.682007 2974.109375,1283.926758   C2975.883789,1284.532715 2977.375000,1285.968384 2979.562256,1287.383301   C2979.562256,1313.140137 2979.562256,1338.984009 2979.562256,1366.203247   C2955.480713,1377.912964 2931.103760,1389.383667 2907.114258,1400.697876   C2895.741943,1385.457031 2892.190430,1378.430420 2889.182129,1365.633179   C2893.192139,1365.250122 2897.130127,1365.043579 2901.014893,1364.474243   C2920.551025,1361.610840 2933.561279,1348.687988 2936.281982,1329.393433   C2937.211914,1322.800537 2937.820312,1316.162354 2938.691406,1307.628418  z"/>
<path fill="#FFFFFF" opacity="1.000000" stroke="none" d=" M2000.809570,1125.406250   C2090.656494,1104.196899 2201.050781,1085.002441 2231.999756,1084.981812   C2235.590088,1095.877319 2235.748779,1106.078613 2232.436279,1128.879883   C2216.536865,1131.071899 2200.209229,1133.638306 2183.803711,1135.529297   C2118.254150,1143.084717 2053.388916,1154.211060 1989.821289,1172.192139   C1966.104126,1178.900879 1942.732910,1186.736938 1921.057861,1198.607666   C1913.013062,1203.013672 1905.187500,1208.603149 1898.862793,1215.190186   C1888.313599,1226.176636 1888.558960,1241.477051 1898.444824,1253.214844   C1904.000366,1259.811157 1910.531860,1265.212891 1918.591431,1269.065552   C1939.677979,1279.145752 1961.395142,1287.216553 1984.116821,1292.738892   C1991.070679,1294.429077 1998.574707,1294.910645 2005.595215,1300.081055   C2005.819214,1304.241699 2006.331055,1308.778320 2006.253662,1313.304932   C2006.073608,1323.851196 2007.010132,1334.466064 2005.392090,1346.092163   C2000.733643,1345.420898 1996.918457,1345.125488 1993.221802,1344.299561   C1953.494141,1335.421387 1914.768311,1323.624878 1878.535034,1304.628540   C1863.642822,1296.820923 1850.208740,1287.310425 1840.195679,1273.435791   C1827.141357,1255.347168 1826.854980,1236.209595 1836.096191,1216.851807   C1842.777344,1202.856567 1853.168335,1191.727905 1865.903931,1182.568359   C1889.371338,1165.690796 1915.204224,1153.635376 1942.300415,1144.187500   C1961.125977,1137.623779 1980.267090,1131.964722 2000.809570,1125.406250  z"/>
<path fill="#FFFFFF" opacity="1.000000" stroke="none" d=" M3624.064941,1163.287109   C3581.814453,1152.184937 3540.390869,1145.743286 3498.834473,1140.043335   C3475.749756,1136.876953 3452.636475,1133.919189 3429.552002,1130.750610   C3425.629639,1130.212402 3421.787842,1129.083374 3417.013672,1128.029541   C3414.864502,1114.179443 3415.871094,1100.544800 3416.505371,1085.967407   C3419.745850,1085.409180 3422.304932,1084.291382 3424.620605,1084.669067   C3476.485596,1093.127075 3528.348877,1101.600098 3580.158936,1110.387695   C3623.553467,1117.748047 3665.871094,1129.389648 3707.277100,1144.205200   C3730.474121,1152.505127 3752.853516,1162.723389 3773.921387,1175.677979   C3784.806885,1182.371460 3794.608398,1190.209351 3802.640381,1200.187988   C3828.157715,1231.889648 3825.251953,1267.734497 3790.822266,1291.802002   C3776.215332,1302.012939 3759.916260,1310.086914 3743.689209,1317.633667   C3715.905518,1330.555420 3678.599854,1341.054688 3645.549316,1346.838867   C3641.904785,1331.874756 3644.705322,1316.748779 3644.029541,1301.993774   C3649.732422,1294.384888 3658.442139,1294.566040 3665.839600,1292.687134   C3687.218506,1287.256958 3707.642090,1279.342529 3727.877930,1270.795288   C3736.596191,1267.113037 3744.263916,1261.913818 3750.410889,1254.666504   C3760.827148,1242.385986 3760.835449,1226.498657 3749.706055,1214.923340   C3744.699219,1209.715942 3738.843262,1204.863403 3732.496826,1201.503540   C3720.184814,1194.985352 3707.639648,1188.492310 3694.493408,1184.056519   C3671.841797,1176.413452 3648.656494,1170.352173 3624.064941,1163.287109  z"/>
<path fill="#FFFFFF" opacity="1.000000" stroke="none" d=" M3280.016113,1123.982178   C3280.019775,1098.059448 3280.019775,1074.131348 3280.019775,1049.919189   C3273.006836,1044.894775 3265.548096,1045.338867 3258.455811,1044.927002   C3233.173828,1043.458496 3207.876465,1042.259033 3182.589111,1040.878174   C3178.014160,1040.628418 3173.459961,1040.004395 3168.096436,1039.473999   C3171.247803,1024.375732 3180.326172,1015.143188 3192.991943,1009.796753   C3200.190186,1006.758118 3208.321045,1005.554443 3216.163330,1004.536743   C3222.042969,1003.773804 3228.164551,1004.268860 3234.122559,1004.815613   C3281.219727,1009.137756 3328.303711,1013.605591 3375.391602,1018.031860   C3383.350830,1018.780090 3391.326904,1019.391785 3399.263672,1020.331543   C3416.349365,1022.354492 3426.921143,1032.173950 3431.916748,1048.319214   C3432.249756,1049.395142 3431.406250,1050.835205 3430.888184,1053.055054   C3422.541992,1052.565796 3414.013428,1051.791504 3405.472900,1051.624390   C3389.461914,1051.310913 3381.983398,1057.830566 3380.461182,1073.426880   C3379.880615,1079.379028 3380.022217,1085.411133 3380.009033,1091.407227   C3379.944824,1120.732178 3379.938721,1150.057129 3379.915039,1179.382080   C3379.909668,1185.991211 3379.914307,1192.600342 3379.914307,1200.327637   C3375.449463,1200.676270 3371.630859,1201.480225 3367.900635,1201.182007   C3346.645996,1199.484009 3325.407471,1197.573608 3304.175537,1195.606445   C3300.216309,1195.239502 3296.232910,1194.578491 3292.397705,1193.544067   C3283.382812,1191.112915 3280.408691,1187.624512 3280.224121,1177.959839   C3279.892822,1160.637085 3280.055908,1143.304932 3280.016113,1123.982178  z"/>
<path fill="#FFFFFF" opacity="1.000000" stroke="none" d=" M2485.272705,1411.997681   C2486.295654,1383.452393 2487.221191,1356.905151 2488.193115,1329.029297   C2491.397949,1328.103516 2495.054688,1326.920288 2498.776611,1326.001221   C2504.601562,1324.562744 2508.953613,1326.417725 2512.440918,1331.520508   C2515.666016,1336.239258 2516.615967,1342.991943 2523.196045,1344.815918   C2528.855713,1344.200439 2528.363525,1339.199463 2529.771484,1335.873535   C2538.360107,1315.583862 2545.786621,1310.280151 2570.769775,1307.598511   C2568.277832,1316.646729 2565.891846,1325.462891 2563.420410,1334.255127   C2554.420166,1366.275757 2567.514648,1392.374146 2590.072754,1404.944336   C2598.186279,1409.465576 2605.491699,1415.411499 2613.417725,1420.298706   C2637.738281,1435.294067 2656.309814,1455.833862 2671.454102,1479.746338   C2680.673828,1494.304199 2685.871826,1509.485840 2680.552734,1527.032104   C2677.938721,1535.654053 2676.744873,1544.706421 2674.304199,1556.478149   C2671.247070,1550.468628 2669.405273,1547.089355 2667.779785,1543.609253   C2662.151123,1531.557861 2656.770752,1519.387451 2650.976318,1507.416992   C2640.918701,1486.639526 2626.333008,1469.505859 2607.765625,1455.899780   C2596.498535,1447.643433 2585.067871,1439.535522 2573.187988,1432.208374   C2554.751709,1420.837646 2538.569824,1407.476074 2528.425049,1387.835938   C2527.577148,1386.194702 2525.899414,1384.982422 2523.589600,1382.459229   C2522.135254,1385.265747 2520.301758,1387.225952 2520.170654,1389.294434   C2518.187988,1420.542358 2516.197754,1451.917603 2520.787598,1483.000122   C2526.864502,1524.151733 2546.991699,1556.306274 2584.751221,1576.114746   C2601.883545,1585.102173 2619.337158,1593.083984 2638.291504,1597.533447   C2643.992432,1598.871582 2649.426270,1601.346436 2655.056396,1603.326660   C2656.017822,1612.186157 2655.828613,1619.946533 2651.727539,1627.911865   C2644.724365,1630.678467 2637.503662,1629.718750 2630.418457,1628.143921   C2597.407471,1620.806152 2567.493652,1606.972900 2541.523438,1585.080444   C2510.603271,1559.014648 2493.463135,1525.557861 2487.727051,1485.746582   C2484.288574,1461.880737 2484.036621,1437.982788 2485.272705,1411.997681  z"/>
<path fill="#FFFFFF" opacity="1.000000" stroke="none" d=" M3163.617188,1364.286133   C3163.838623,1398.160645 3164.494873,1430.109741 3164.147949,1462.048096   C3163.400879,1530.852295 3128.961670,1578.584106 3069.984131,1610.674072   C3054.631592,1619.027466 3037.907471,1623.404419 3021.211182,1627.827393   C3016.762207,1629.005737 3012.007080,1629.299561 3007.374512,1629.447632   C3000.518799,1629.666992 2997.329346,1626.950806 2996.404053,1620.590088   C2996.022461,1617.966919 2995.915527,1615.282959 2995.934570,1612.628296   C2995.953369,1609.998413 2996.288330,1607.370605 2996.465088,1605.005615   C3002.141846,1598.923462 3009.686768,1598.041016 3016.607910,1596.210693   C3036.721680,1590.891968 3055.214111,1581.908447 3073.124268,1571.683716   C3087.255859,1563.615723 3098.443359,1551.914185 3107.104004,1538.452759   C3118.267822,1521.100342 3126.553223,1502.624390 3129.369873,1481.435059   C3133.177246,1452.791504 3132.188965,1424.342285 3130.554932,1395.768433   C3130.367188,1392.482666 3129.540283,1389.204834 3128.706543,1386.002075   C3128.447510,1385.007568 3127.188477,1384.273560 3126.284912,1383.311401   C3121.962646,1382.993530 3121.145020,1386.794067 3119.674316,1389.461792   C3109.729492,1407.501343 3095.134277,1420.840332 3077.445312,1430.845215   C3058.203613,1441.728516 3040.709473,1454.959717 3024.847412,1470.192017   C3010.810547,1483.671143 3000.737061,1500.231567 2992.583252,1517.780762   C2987.084717,1529.616211 2982.706055,1541.972046 2977.273682,1555.468018   C2970.956299,1538.613403 2966.580811,1522.702026 2967.702881,1505.858765   C2968.044434,1500.733398 2969.725342,1495.319946 2972.163086,1490.772949   C2987.820801,1461.567017 3008.494873,1436.892578 3037.337646,1419.630371   C3047.029297,1413.830322 3056.251465,1407.234253 3065.590088,1400.858276   C3081.156738,1390.229736 3088.552734,1374.998657 3087.970215,1356.575195   C3087.616699,1345.392334 3085.041992,1334.250977 3083.072754,1323.160645   C3082.160156,1318.022827 3080.310547,1313.051392 3078.827148,1307.798096   C3096.757324,1307.736694 3107.456543,1313.287109 3114.869873,1326.535767   C3118.396240,1332.838501 3121.374512,1339.447754 3125.558838,1347.838745   C3129.740967,1342.359863 3132.896729,1338.380981 3135.885254,1334.280151   C3143.609863,1323.681030 3146.343750,1322.889526 3159.449951,1328.015259   C3160.587891,1328.460327 3161.423584,1329.678467 3163.597168,1331.591675   C3163.597168,1341.134277 3163.597168,1351.744995 3163.617188,1364.286133  z"/>
<path fill="#FFFFFF" opacity="1.000000" stroke="none" d=" M2346.704346,1015.706604   C2361.431152,1022.934265 2366.742676,1034.658325 2368.564453,1048.508667   C2369.083984,1052.458618 2369.389648,1056.471069 2369.367920,1060.452515   C2369.169189,1097.062012 2368.933838,1133.671387 2368.588623,1170.279785   C2368.406250,1189.615967 2365.314697,1193.415527 2345.953613,1195.571899   C2322.805176,1198.149902 2299.572510,1199.980225 2276.366211,1202.019165   C2274.486084,1202.184326 2272.528076,1201.462158 2269.139893,1200.915771   C2268.885986,1197.311035 2268.403809,1193.609741 2268.398682,1189.907715   C2268.347656,1153.955444 2268.545410,1118.002197 2268.327148,1082.051270   C2268.164795,1055.275879 2260.890381,1049.029175 2234.308838,1051.802246   C2228.649414,1052.392700 2222.981201,1052.902588 2216.183350,1053.559082   C2220.389648,1033.316895 2231.797119,1022.738464 2250.177246,1020.537964   C2275.944092,1017.453064 2301.803711,1015.066284 2327.670166,1012.947266   C2333.414307,1012.476685 2339.352295,1014.367493 2346.704346,1015.706604  z"/>
<path fill="#FFFFFF" opacity="1.000000" stroke="none" d=" M2912.354980,1208.228760   C2935.247559,1217.494629 2957.711670,1223.739502 2978.370361,1234.738037   C2981.955566,1244.097534 2980.649902,1253.282471 2980.187256,1263.900269   C2975.966553,1263.260498 2972.221436,1263.235352 2968.852783,1262.096924   C2939.950684,1252.329834 2911.116211,1242.361328 2881.539551,1232.204956   C2871.390381,1236.166260 2863.187988,1244.069580 2854.080322,1250.594971   C2844.930664,1257.150635 2835.633545,1263.500610 2826.065674,1270.174683   C2804.467285,1260.214355 2788.339844,1242.598755 2767.338623,1232.096191   C2735.300049,1242.782593 2704.096924,1255.563354 2671.608154,1263.738525   C2670.595947,1261.548462 2669.654541,1260.390869 2669.554199,1259.164673   C2667.666016,1236.060181 2669.377197,1233.145020 2690.918457,1225.476807   C2717.169434,1216.132202 2743.463867,1206.898071 2769.885010,1198.050659   C2776.735352,1195.756592 2784.109375,1193.991821 2791.275391,1193.868042   C2813.865723,1193.477539 2836.474365,1193.817017 2859.070557,1194.191895   C2877.389160,1194.495605 2893.898926,1202.071167 2912.354980,1208.228760  z"/>

<path fill="#FFFFFF" opacity="1.000000" stroke="none" d=" M2281.472656,1809.114014   C2247.269775,1805.386108 2214.821289,1802.257324 2182.400391,1795.502808   C2177.911133,1779.893433 2181.212891,1764.632080 2180.090332,1748.346313   C2184.165527,1747.988647 2187.918701,1747.042358 2191.523193,1747.440918   C2218.666260,1750.442261 2245.762207,1753.865356 2272.907471,1756.845337   C2298.063232,1759.607056 2323.264404,1761.952026 2348.437988,1764.554688   C2353.621826,1765.090698 2358.771729,1765.954102 2365.069824,1766.822754   C2366.784912,1783.192749 2366.967041,1798.812500 2365.325439,1815.183105   C2350.548584,1817.175293 2336.832520,1814.595703 2323.073730,1813.191895   C2309.817871,1811.839355 2296.552490,1810.578491 2281.472656,1809.114014  z"/>
<path fill="#FFFFFF" opacity="1.000000" stroke="none" d=" M2320.319336,1386.376953   C2274.100830,1382.541504 2229.806641,1378.809570 2185.521240,1374.972778   C2184.378418,1374.873779 2183.334473,1373.630615 2181.032959,1372.132690   C2179.118896,1365.356934 2180.376221,1357.405396 2180.309570,1349.601196   C2180.248779,1342.454712 2180.665527,1335.304077 2180.843262,1329.145386   C2182.512939,1327.825684 2183.051758,1327.033691 2183.552002,1327.057373   C2198.073242,1327.743286 2212.599365,1328.369263 2227.106445,1329.291138   C2272.682129,1332.187012 2318.250488,1335.198975 2364.808105,1338.230225   C2367.667480,1354.572998 2365.687988,1370.200073 2366.534668,1386.482300   C2358.412354,1389.321411 2351.169678,1387.891113 2344.114502,1387.745117   C2336.818604,1387.594360 2329.534180,1386.914673 2320.319336,1386.376953  z"/>
<path fill="#FFFFFF" opacity="1.000000" stroke="none" d=" M3426.860352,1801.770508   C3357.371582,1811.536255 3301.073730,1816.587158 3285.617920,1814.343140   C3285.200684,1811.507446 3284.361328,1808.359009 3284.339111,1805.204590   C3284.251465,1792.690308 3284.032715,1780.156982 3284.413574,1768.654785   C3287.059570,1767.046143 3288.119629,1765.887817 3289.289551,1765.763794   C3347.479248,1759.595703 3405.676270,1753.501099 3463.883301,1747.499146   C3465.703613,1747.311279 3467.633545,1748.183960 3470.774170,1748.816162   C3471.405273,1756.606323 3471.187012,1764.465210 3471.051270,1772.277222   C3470.926270,1779.487061 3472.650391,1786.870117 3469.248291,1795.308594   C3455.976074,1797.315308 3442.282715,1799.385864 3426.860352,1801.770508  z"/>
<path fill="#FFFFFF" opacity="1.000000" stroke="none" d=" M3360.550781,1333.625732   C3397.020020,1331.496460 3431.590820,1329.530396 3466.168457,1327.686523   C3467.281982,1327.627197 3468.461914,1328.819824 3470.446045,1329.871460   C3470.446045,1343.834229 3470.446045,1358.240479 3470.446045,1373.755493   C3466.331543,1374.643921 3462.631348,1375.847168 3458.851562,1376.200073   C3352.913818,1386.096436 3302.968750,1388.988159 3284.678711,1386.107788   C3284.500977,1382.543945 3284.167969,1378.705078 3284.144775,1374.864502   C3284.072754,1362.971069 3284.118652,1351.076904 3284.118652,1338.264893   C3309.684570,1334.740234 3334.360596,1336.865234 3360.550781,1333.625732  z"/>
<path fill="#FFFFFF" opacity="1.000000" stroke="none" d=" M1827.969971,1648.347412   C1827.954956,1642.225586 1827.954956,1637.772705 1827.954956,1633.596802   C1834.128906,1632.051636 1836.191895,1636.211304 1838.853149,1638.689087   C1862.119873,1660.352295 1889.462036,1675.376099 1918.830688,1686.591797   C1944.261475,1696.303345 1970.008911,1705.327271 1996.786011,1710.889282   C1999.337769,1711.419312 2001.792236,1712.417603 2005.160156,1713.469604   C2009.273315,1729.769043 2006.693848,1746.128662 2006.926636,1764.028442   C1998.759644,1762.371948 1991.637695,1761.460938 1984.838135,1759.456543   C1954.200317,1750.424927 1923.786743,1740.706787 1894.922241,1726.785278   C1881.111084,1720.124268 1867.942871,1712.444946 1855.885864,1702.838745   C1838.816284,1689.238647 1828.605957,1672.209351 1827.969971,1648.347412  z"/>
<path fill="#FFFFFF" opacity="1.000000" stroke="none" d=" M3797.698242,1649.987183   C3805.962158,1643.482178 3813.097656,1637.890747 3821.949951,1630.953857   C3825.546875,1662.678589 3816.319092,1686.337646 3792.521484,1704.127319   C3775.903076,1716.550537 3758.016602,1727.168945 3738.704346,1734.290894   C3710.668457,1744.629883 3681.889648,1752.958496 3653.396973,1762.048584   C3650.947021,1762.830322 3648.268066,1762.894653 3644.931885,1763.410400   C3643.026367,1747.153687 3643.872803,1731.424805 3644.416504,1715.079224   C3656.763184,1710.071411 3668.988281,1707.174561 3680.937500,1703.443604   C3708.221436,1694.924561 3735.759277,1686.971924 3760.759033,1672.600464   C3772.856445,1665.646240 3784.642822,1658.151123 3797.698242,1649.987183  z"/>
<path fill="#FFFFFF" opacity="1.000000" stroke="none" d=" M3435.959473,1491.755249   C3431.604980,1488.492554 3428.323242,1486.199829 3425.215820,1483.690918   C3404.794678,1467.203247 3381.587402,1461.726440 3355.860840,1465.888550   C3350.638916,1466.733398 3345.363037,1467.245239 3339.161621,1468.031006   C3327.220215,1456.829590 3315.177979,1445.533325 3301.979980,1433.152832   C3305.119141,1430.700562 3307.202881,1428.392212 3309.797607,1427.155640   C3328.125000,1418.419922 3347.923584,1413.972656 3367.806152,1413.771240   C3404.257568,1413.401978 3437.139160,1424.778564 3464.702637,1449.723877   C3469.824951,1454.359741 3470.691650,1459.957153 3470.765381,1465.918457   C3470.979492,1483.200439 3470.841309,1500.486816 3470.841309,1517.486328   C3466.762207,1520.599976 3464.582031,1517.860962 3462.142822,1515.601196   C3453.834717,1507.904297 3445.461426,1500.278198 3435.959473,1491.755249  z"/>
<path fill="#FFFFFF" opacity="1.000000" stroke="none" d=" M3339.410645,1638.820801   C3337.164062,1641.308960 3335.966064,1642.925293 3334.515869,1644.269531   C3328.626953,1649.727905 3325.653076,1650.452515 3320.936768,1646.272827   C3311.066650,1637.525513 3301.567871,1628.359375 3292.002441,1619.445312   C3308.374268,1598.832886 3388.838379,1513.185059 3406.609863,1497.461914   C3420.199463,1505.208618 3431.401367,1515.734131 3440.663330,1529.918091   C3408.857910,1567.725586 3374.657227,1602.826416 3339.410645,1638.820801  z"/>
<path fill="#FFFFFF" opacity="1.000000" stroke="none" d=" M2299.066895,1680.197998   C2304.648682,1680.630615 2309.843262,1679.614014 2312.219727,1681.742920   C2324.958740,1693.156250 2337.240723,1705.147217 2346.669678,1721.069336   C2331.200684,1728.300415 2315.506348,1730.268677 2300.007812,1730.330078   C2258.513184,1730.494507 2222.070312,1716.554199 2191.370605,1688.212280   C2183.694336,1681.125488 2179.073242,1673.490723 2179.753174,1662.208130   C2180.746094,1645.729492 2180.008301,1629.146484 2180.008301,1613.006104   C2185.170654,1610.725952 2186.845215,1614.214355 2188.906738,1616.483887   C2197.380615,1625.814087 2205.613281,1635.366089 2214.176758,1644.612183   C2236.595459,1668.818115 2264.181885,1681.109375 2299.066895,1680.197998  z"/>
<path fill="#FFFFFF" opacity="1.000000" stroke="none" d=" M2218.929199,1595.796021   C2251.820312,1562.878784 2284.470459,1531.868774 2318.399902,1500.770874   C2331.734619,1511.385132 2341.163086,1523.942383 2351.077148,1535.839600   C2340.056396,1552.569702 2259.864990,1629.851440 2242.034180,1640.837646   C2230.071289,1630.977905 2219.091797,1619.927002 2210.073242,1606.427979   C2212.899414,1602.937988 2215.378174,1599.877319 2218.929199,1595.796021  z"/>
<path fill="#FFFFFF" opacity="1.000000" stroke="none" d=" M2236.771973,1420.266846   C2268.558838,1410.540527 2298.416748,1411.998657 2327.829834,1423.425781   C2333.368164,1425.577393 2338.708496,1428.244385 2344.112305,1430.734131   C2359.611816,1437.875977 2367.008057,1449.111450 2365.367432,1466.992188   C2363.988281,1482.024292 2365.084229,1497.283447 2365.084229,1512.162842   C2359.808350,1514.614990 2358.697266,1510.372681 2356.672852,1508.526733   C2347.871582,1500.501221 2339.557861,1491.924194 2330.555176,1484.139526   C2310.759521,1467.021851 2287.903320,1460.805298 2262.078125,1466.057739   C2258.224609,1466.841431 2254.271240,1467.135498 2249.083008,1467.826782   C2238.131592,1455.932983 2227.021240,1443.866333 2214.584473,1430.359497   C2222.618896,1426.610474 2228.936279,1423.662720 2236.771973,1420.266846  z"/>
<path fill="#FFFFFF" opacity="1.000000" stroke="none" d=" M3147.278809,1566.882935   C3151.053467,1563.748413 3153.469238,1564.667480 3154.378906,1567.556274   C3159.981445,1585.344482 3164.771240,1603.323242 3164.905518,1622.169922   C3164.990723,1634.151611 3165.002441,1646.134033 3164.983398,1658.116211   C3164.927002,1694.062866 3164.835693,1730.009644 3164.766113,1765.956299   C3164.749512,1774.542114 3164.763672,1783.127930 3164.763672,1792.062012   C3162.884766,1791.625488 3162.475830,1791.530518 3162.067139,1791.435547   C3162.266113,1791.020996 3162.717773,1790.539307 3162.628174,1790.201294   C3152.769775,1753.031494 3142.609375,1715.939331 3133.106201,1678.679321   C3129.406494,1664.171753 3121.916748,1654.091187 3108.246582,1647.174438   C3097.754639,1641.866089 3088.761230,1633.597046 3077.774902,1625.690063   C3081.370117,1622.637939 3083.470947,1620.265259 3086.073486,1618.762085   C3092.395752,1615.110840 3098.951660,1611.863892 3105.561279,1608.375977   C3114.683838,1611.852905 3120.436035,1621.375244 3131.652588,1623.894897   C3133.927246,1611.940674 3132.045410,1601.087158 3129.136719,1589.345825   C3134.771729,1582.336426 3140.541504,1575.159302 3147.278809,1566.882935  z"/>
<path fill="#FFFFFF" opacity="1.000000" stroke="none" d=" M1900.919189,1554.194580   C1909.059937,1566.468140 1915.743164,1578.065552 1924.159302,1588.227661   C1937.047363,1603.789062 1953.256714,1615.756836 1972.259155,1622.703125   C1985.824829,1627.662109 1994.122925,1637.634888 2001.262085,1648.746582   C2006.723511,1657.247437 2006.331787,1667.452637 2005.764648,1677.570557   C1997.913452,1679.237427 1991.781250,1676.577637 1985.596191,1674.584595   C1941.010986,1660.218018 1908.130371,1631.647949 1886.008911,1590.818970   C1878.775024,1577.467407 1874.060791,1562.773560 1867.685059,1548.928101   C1860.527954,1533.385864 1864.640625,1520.889404 1877.430786,1508.850586   C1886.807739,1523.193970 1892.001343,1538.866577 1900.919189,1554.194580  z"/>
<path fill="#FFFFFF" opacity="1.000000" stroke="none" d=" M2538.299805,1611.296021   C2542.099365,1609.909180 2545.261963,1608.158325 2546.902832,1609.089233   C2554.885986,1613.619507 2562.461670,1618.867310 2571.572510,1624.760864   C2561.353027,1633.629150 2552.003418,1641.753662 2541.101562,1647.595215   C2529.156250,1653.995850 2521.766357,1663.227539 2518.307617,1676.317505   C2509.976074,1707.849731 2501.224609,1739.270752 2492.646240,1770.737793   C2490.605957,1778.222290 2488.582031,1785.711304 2484.607178,1793.044434   C2484.607178,1788.761963 2484.595459,1784.479614 2484.608887,1780.197144   C2484.763428,1730.877563 2484.916016,1681.557861 2485.082275,1632.238281   C2485.147705,1612.822632 2487.589844,1593.714966 2492.892578,1575.024658   C2493.951904,1571.291138 2495.719482,1567.758423 2497.889893,1562.298096   C2505.748047,1571.284424 2512.659912,1579.188599 2519.446045,1586.948853   C2520.446045,1598.709839 2513.651855,1609.647095 2518.163086,1621.485718   C2526.337158,1621.900879 2531.462891,1616.633057 2538.299805,1611.296021  z"/>
<path fill="#FFFFFF" opacity="1.000000" stroke="none" d=" M3326.119629,1675.820068   C3346.648926,1683.094238 3365.577881,1681.895630 3384.418701,1675.668213   C3388.196777,1674.419434 3391.737305,1672.218262 3395.583496,1671.483765   C3398.608398,1670.905762 3403.033203,1670.692383 3404.945068,1672.415649   C3415.193604,1681.652588 3426.257080,1690.182495 3435.172607,1701.399658   C3423.241943,1713.650757 3408.929932,1719.129272 3394.484131,1723.925171   C3366.389893,1733.252319 3338.150146,1732.885376 3310.219727,1723.008789   C3303.990967,1720.806396 3298.090088,1717.584473 3292.222412,1714.483276   C3287.247803,1711.854126 3284.112061,1707.866821 3284.152100,1701.756470   C3284.264648,1684.592041 3284.191162,1667.426270 3284.191162,1648.332031   C3293.192139,1651.898560 3298.121338,1658.298584 3304.468262,1662.472168   C3311.118408,1666.845093 3317.880615,1671.047363 3326.119629,1675.820068  z"/>
<path fill="#FFFFFF" opacity="1.000000" stroke="none" d=" M3751.804199,1392.008179   C3761.859375,1401.787231 3771.044434,1410.432861 3779.614502,1419.650024   C3784.953369,1425.391602 3786.048340,1432.993896 3783.968262,1440.308350   C3781.317871,1449.627808 3778.748047,1459.161255 3772.126709,1468.158813   C3767.512451,1463.362549 3763.536621,1459.143433 3759.464844,1455.018799   C3754.327148,1449.814087 3749.148682,1444.648560 3743.923096,1439.532227   C3726.362305,1422.338867 3705.056396,1417.614990 3681.388672,1420.868286   C3676.164062,1421.586548 3670.952637,1422.400635 3665.601562,1423.190308   C3655.431396,1411.545654 3642.756104,1401.975464 3643.473633,1383.267090   C3680.618652,1367.536499 3716.435059,1366.555298 3751.804199,1392.008179  z"/>
<path fill="#FFFFFF" opacity="1.000000" stroke="none" d=" M1875.478760,1344.523193   C1903.205078,1375.704590 1920.652710,1411.566895 1938.674927,1447.072388   C1940.174316,1450.026611 1941.484009,1453.090942 1942.682617,1456.181396   C1946.388672,1465.735962 1945.733276,1468.663574 1937.906006,1475.192871   C1933.936646,1478.504028 1929.599121,1481.373779 1924.617554,1485.039673   C1921.858887,1481.005615 1918.949829,1477.463867 1916.830322,1473.500122   C1912.767822,1465.903564 1909.018921,1458.130127 1905.377319,1450.319458   C1890.405029,1418.207275 1872.224854,1388.304321 1846.459961,1363.508057   C1842.640259,1359.831787 1839.402832,1355.557617 1835.697754,1351.753174   C1832.235962,1348.198730 1830.713867,1344.037842 1830.725586,1339.169067   C1830.749634,1329.244019 1830.732788,1319.318848 1830.732788,1309.319702   C1834.157227,1306.931274 1836.905518,1308.828979 1839.371704,1311.089478   C1851.115967,1321.853516 1862.787354,1332.697388 1875.478760,1344.523193  z"/>
<path fill="#FFFFFF" opacity="1.000000" stroke="none" d=" M3722.226318,1573.401611   C3718.022949,1568.191040 3714.816895,1564.024170 3710.917725,1558.956909   C3717.193359,1547.436401 3723.403809,1536.035522 3729.825195,1524.247559   C3737.625244,1527.803101 3741.281982,1534.431519 3746.440674,1539.413208   C3754.539795,1547.234253 3762.516113,1555.235962 3771.168701,1562.407837   C3775.656250,1566.127808 3781.283936,1568.730347 3786.760986,1570.929688   C3792.877441,1573.385620 3798.719238,1570.504028 3801.417236,1564.282104   C3802.717041,1561.284302 3803.165527,1557.927002 3804.126709,1554.771118   C3808.348389,1540.906494 3812.616455,1527.056030 3818.136230,1509.066772   C3820.345703,1515.762573 3821.916016,1518.402588 3821.990723,1521.084229   C3822.563477,1541.633301 3823.133789,1562.190186 3823.148926,1582.745117   C3823.171143,1612.861938 3789.948975,1622.742310 3771.349121,1612.470215   C3759.659668,1606.014282 3748.406006,1599.156494 3738.742920,1589.911743   C3733.466797,1584.863892 3728.390381,1579.607666 3722.226318,1573.401611  z"/>
<path fill="#FFFFFF" opacity="1.000000" stroke="none" d=" M2762.493652,1643.114258   C2773.994629,1630.093018 2784.428711,1618.067261 2795.513428,1606.674438   C2806.629883,1595.249146 2818.399658,1584.459839 2829.871582,1573.379639   C2831.305664,1571.994751 2832.716553,1570.579590 2834.054199,1569.102295   C2846.943604,1554.866821 2847.614014,1546.657471 2836.963135,1527.328491   C2841.237549,1521.173096 2846.251465,1515.351807 2853.007568,1511.469238   C2874.707520,1523.205811 2882.674805,1559.356323 2860.123779,1582.444580   C2851.311523,1591.466675 2841.861084,1599.869019 2832.618164,1608.464111   C2828.725586,1612.083496 2824.661377,1615.522461 2820.599609,1618.954224   C2805.761719,1631.490479 2792.765869,1645.476074 2785.752930,1664.555908   C2775.946045,1664.555908 2766.770996,1664.555908 2757.305908,1664.555908   C2752.767090,1656.409058 2759.895752,1650.947266 2762.493652,1643.114258  z"/>
<path fill="#FFFFFF" opacity="1.000000" stroke="none" d=" M3739.198242,1463.761475   C3742.430176,1474.931030 3736.352539,1482.967285 3732.096924,1490.673584   C3714.466553,1522.599731 3695.279297,1553.609497 3672.380859,1582.143311   C3664.964844,1591.384521 3656.730713,1599.716797 3646.870117,1606.905884   C3642.057129,1602.306152 3644.038086,1597.498413 3643.827393,1593.252563   C3643.564209,1587.956177 3643.773926,1582.634155 3643.841797,1577.323975   C3643.900879,1572.684082 3643.117432,1567.767456 3644.399414,1563.479248   C3645.869385,1558.561035 3648.370850,1553.409546 3651.864258,1549.724731   C3676.325928,1523.922485 3694.188232,1493.781250 3710.481689,1462.528564   C3712.878906,1457.930420 3715.943604,1453.680176 3719.041504,1448.721558   C3728.083740,1450.807739 3732.562744,1457.723022 3739.198242,1463.761475  z"/>
<path fill="#FFFFFF" opacity="1.000000" stroke="none" d=" M3471.397949,1689.388916   C3471.416504,1693.528809 3471.416504,1695.970825 3471.416504,1698.334229   C3468.806396,1698.484375 3467.105957,1699.104126 3466.497559,1698.541870   C3439.245850,1673.366455 3411.557861,1648.613770 3386.802490,1619.139404   C3398.442871,1607.532227 3409.559326,1596.447632 3421.485596,1584.555420   C3439.665283,1598.089355 3452.958740,1615.650146 3470.455566,1630.153442   C3470.762207,1649.249512 3471.070557,1668.470337 3471.397949,1689.388916  z"/>
<path fill="#FFFFFF" opacity="1.000000" stroke="none" d=" M2204.183594,1523.858154   C2174.677734,1490.626343 2180.776123,1500.821411 2180.194824,1462.929565   C2180.025635,1451.899780 2180.452148,1440.860962 2180.597900,1430.402466   C2182.667236,1429.713257 2183.281982,1429.319702 2183.859863,1429.367432   C2184.480469,1429.418579 2185.164795,1429.770630 2185.649658,1430.190063   C2187.148438,1431.487061 2188.686035,1432.771484 2189.995850,1434.249512   C2214.662598,1462.086670 2239.298340,1489.950928 2264.501709,1518.444092   C2255.159912,1530.905029 2243.596924,1541.606323 2230.158691,1552.435669   C2225.683594,1547.780273 2221.154053,1543.255859 2216.844971,1538.530640   C2212.813721,1534.110229 2209.016113,1529.476685 2204.183594,1523.858154  z"/>
<path fill="#FFFFFF" opacity="1.000000" stroke="none" d=" M1952.503418,1484.552979   C1966.125366,1473.855469 1978.595581,1463.974365 1991.331055,1454.447876   C1994.421143,1452.136230 1998.385498,1450.993408 2003.140137,1448.750977   C2004.351685,1452.154175 2006.143799,1454.950806 2006.221436,1457.794312   C2006.546875,1469.709229 2006.358521,1481.638306 2006.358521,1494.971558   C1977.209229,1513.373657 1953.105225,1538.630493 1930.376099,1566.667480   C1921.071411,1555.542847 1915.276855,1545.314819 1910.572388,1533.502319   C1920.748779,1514.682007 1936.505859,1500.428345 1952.503418,1484.552979  z"/>
<path fill="#FFFFFF" opacity="1.000000" stroke="none" d=" M2649.383789,1246.995850   C2649.340820,1288.401489 2650.246094,1328.092773 2649.464111,1367.401245   C2638.494629,1372.469727 2629.898926,1368.645020 2620.456543,1367.310791   C2619.621826,1363.078491 2618.473633,1359.961914 2618.474365,1356.845581   C2618.484131,1320.987427 2618.667480,1285.129395 2618.806885,1249.271240   C2618.812012,1247.943237 2618.904541,1246.612183 2618.843018,1245.287842   C2618.413330,1236.047119 2622.704834,1229.419434 2634.357910,1228.510742   C2642.373779,1227.885620 2646.727783,1232.453979 2649.227539,1243.281494   C2649.374756,1243.919312 2649.317627,1244.604248 2649.383789,1246.995850  z"/>
<path fill="#FFFFFF" opacity="1.000000" stroke="none" d=" M3072.542236,1511.102539   C3065.215088,1508.882812 3061.294434,1510.699829 3061.198486,1516.718140   C3061.083008,1523.997925 3061.634766,1531.326050 3062.450439,1538.571045   C3063.109619,1544.426514 3064.587646,1550.189819 3065.581055,1555.362061   C3059.769531,1564.203369 3050.846924,1565.350342 3042.138672,1568.801270   C3031.389160,1554.479858 3030.943604,1537.828369 3030.622803,1521.432129   C3030.295654,1504.687378 3032.137451,1488.221558 3044.714355,1473.885498   C3069.039307,1475.193359 3090.752686,1482.824951 3109.588623,1500.708252   C3105.203857,1510.002441 3102.327881,1519.416260 3094.166992,1525.783936   C3087.243896,1520.902222 3080.757080,1516.328003 3072.542236,1511.102539  z"/>
<path fill="#FFFFFF" opacity="1.000000" stroke="none" d=" M2619.938721,1523.808838   C2619.366455,1540.372314 2615.762695,1554.328735 2609.010986,1568.036621   C2598.354004,1567.120239 2589.781982,1563.431030 2583.301270,1554.141968   C2586.590088,1540.119141 2591.284180,1526.059448 2586.465820,1510.275513   C2582.566895,1510.862427 2578.374512,1510.501587 2575.262207,1512.163574   C2568.307861,1515.877197 2561.891846,1520.599121 2554.625977,1525.319946   C2547.351562,1519.215942 2543.480469,1511.090332 2540.509766,1501.883789   C2544.722900,1493.690063 2552.383545,1489.169922 2560.105713,1485.888428   C2571.019287,1481.250732 2582.510986,1477.746704 2594.025391,1474.818970   C2603.643799,1472.373047 2607.271973,1474.464355 2611.415283,1483.423584   C2617.049316,1495.606567 2620.004883,1508.510010 2619.938721,1523.808838  z"/>
<path fill="#FFFFFF" opacity="1.000000" stroke="none" d=" M3031.642334,1307.975830   C3031.647949,1328.530029 3031.647949,1347.092896 3031.647949,1365.156860   C3017.882080,1371.114746 3017.882080,1371.114746 3001.925781,1367.429199   C3001.391602,1365.938599 3000.211426,1364.173218 3000.205811,1362.404297   C3000.081543,1323.192261 3000.237549,1283.978516 2999.956543,1244.767944   C2999.890137,1235.498413 3004.390625,1231.759399 3010.246338,1229.664429   C3019.275391,1226.434326 3028.074951,1231.031128 3030.234131,1240.330688   C3031.268311,1244.785400 3031.309570,1249.527100 3031.360352,1254.143555   C3031.551025,1271.422852 3031.559814,1288.704224 3031.642334,1307.975830  z"/>
<path fill="#FFFFFF" opacity="1.000000" stroke="none" d=" M2313.790039,1646.384888   C2307.472900,1638.665894 2302.063721,1632.039551 2296.022705,1624.638916   C2307.063477,1612.663452 2318.448975,1601.851562 2330.374756,1590.812744   C2343.390625,1601.922241 2351.987305,1615.478882 2362.090088,1627.692139   C2363.663086,1629.593872 2364.697510,1632.515869 2364.763672,1634.998657   C2365.345947,1656.799561 2365.475830,1678.602295 2364.281494,1702.331909   C2344.771973,1684.503906 2329.920654,1665.822021 2313.790039,1646.384888  z"/>
<path fill="#FFFFFF" opacity="1.000000" stroke="none" d=" M2850.812988,1490.929321   C2842.312256,1499.395508 2834.702148,1506.768921 2827.107422,1514.158691   C2822.356934,1518.781006 2817.339844,1523.170166 2812.948242,1528.113281   C2801.198730,1541.338135 2800.905029,1548.390015 2811.114990,1566.079712   C2807.496094,1574.547119 2800.572266,1580.175171 2793.149902,1585.275757   C2775.411377,1569.827393 2770.667725,1545.286499 2781.768799,1525.759033   C2785.312256,1519.525757 2790.251465,1513.926758 2795.269531,1508.730591   C2801.707031,1502.064575 2808.769531,1495.985107 2815.742188,1489.857178   C2826.280273,1480.595703 2835.150391,1469.963501 2842.909424,1458.306030   C2845.739258,1454.054077 2849.199219,1450.221436 2852.712891,1445.764893   C2863.327148,1465.031372 2863.031982,1472.488892 2850.812988,1490.929321  z"/>
<path fill="#FFFFFF" opacity="1.000000" stroke="none" d=" M3643.807617,1662.679565   C3643.882568,1651.737549 3643.955322,1642.512573 3644.024170,1633.771484   C3686.033203,1619.891235 3676.216309,1627.456299 3718.223389,1597.308716   C3725.710449,1604.452637 3733.296387,1611.691284 3741.732422,1619.740601   C3738.896240,1623.829102 3737.122070,1627.282349 3734.543457,1629.960938   C3714.820557,1650.449707 3691.072266,1664.608032 3664.393066,1674.103760   C3658.139160,1676.329712 3651.863770,1677.495117 3643.805176,1676.579468   C3643.805176,1672.054810 3643.805176,1668.225586 3643.807617,1662.679565  z"/>
<path fill="#FFFFFF" opacity="1.000000" stroke="none" d=" M3795.550049,1527.220093   C3792.255615,1533.792358 3789.537842,1539.041016 3786.441162,1545.020752   C3775.513916,1542.285034 3769.360352,1534.981689 3762.941895,1526.335083   C3764.875732,1522.152466 3766.314209,1517.773315 3768.728027,1514.021484   C3787.394043,1485.007935 3797.343262,1452.845093 3803.904053,1419.320923   C3805.809570,1409.584839 3809.005371,1400.083984 3811.952637,1390.581665   C3812.658447,1388.305298 3814.737793,1386.454712 3815.891113,1384.824463   C3821.045410,1384.959595 3820.322510,1388.446899 3820.331543,1390.471436   C3820.425781,1411.091187 3821.370605,1431.799194 3819.764648,1452.301270   C3818.744141,1465.327881 3814.535889,1478.279785 3810.451172,1490.840454   C3806.557861,1502.812378 3800.969727,1514.233276 3795.550049,1527.220093  z"/>
<path fill="#FFFFFF" opacity="1.000000" stroke="none" d=" M3294.530273,1532.651245   C3286.780762,1524.498047 3283.696289,1516.520752 3284.146240,1506.360596   C3284.937500,1488.499634 3284.367432,1470.578369 3284.367432,1452.903687   C3285.576904,1452.460571 3286.195312,1452.075317 3286.828857,1452.049194   C3287.399902,1452.025391 3288.157471,1452.225830 3288.542480,1452.614868   C3310.036133,1474.334961 3331.499512,1496.085449 3353.712402,1518.589233   C3342.686523,1531.713257 3332.617432,1545.487183 3318.754150,1556.330933   C3310.714111,1548.492798 3303.143311,1541.112183 3294.530273,1532.651245  z"/>
<path fill="#FFFFFF" opacity="1.000000" stroke="none" d=" M1841.225098,1465.329834   C1854.084839,1443.742310 1860.661987,1435.903076 1873.594727,1426.532227   C1874.884155,1427.911499 1876.536255,1429.125488 1877.453491,1430.753662   C1881.991333,1438.807861 1886.334839,1446.971558 1891.348511,1456.204712   C1886.414795,1462.834595 1881.674072,1469.872070 1876.262207,1476.348755   C1861.662720,1493.821045 1850.445923,1513.089966 1843.435303,1534.817627   C1841.821289,1539.819336 1839.457886,1544.619995 1837.009033,1549.287109   C1836.276733,1550.682617 1834.082642,1551.311035 1832.409912,1552.386353   C1826.320801,1548.693604 1827.929321,1542.862427 1827.551880,1537.947021   C1825.641724,1513.066895 1828.587036,1489.009521 1841.225098,1465.329834  z"/>
<path fill="#FFFFFF" opacity="1.000000" stroke="none" d=" M1944.314331,1419.729980   C1936.046143,1407.643188 1929.619507,1396.166260 1926.187500,1383.318115   C1948.931641,1371.075562 1978.855347,1370.010376 2005.892822,1380.887329   C2006.336060,1395.763062 2007.445679,1411.184204 2004.946289,1427.777466   C1984.693604,1422.316772 1965.300537,1418.935181 1944.314331,1419.729980  z"/>
<path fill="#FFFFFF" opacity="1.000000" stroke="none" d=" M3760.260254,1368.147461   C3774.267578,1342.735107 3795.229248,1325.811035 3816.299072,1307.898193   C3818.623535,1316.716553 3820.098389,1342.021484 3818.569092,1347.607666   C3817.893311,1350.077026 3816.783203,1352.719116 3815.091064,1354.571167   C3804.418457,1366.254761 3793.526855,1377.738770 3782.225098,1389.803467   C3773.890381,1383.243164 3765.629639,1377.935791 3760.260254,1368.147461  z"/>
<path fill="#FFFFFF" opacity="1.000000" stroke="none" d=" M2002.717285,1620.428467   C1987.494873,1600.563721 1973.859985,1580.991821 1964.283447,1559.521851   C1968.645630,1548.679077 1977.675903,1543.676025 1985.390991,1536.040405   C1994.456543,1543.527588 1999.780396,1553.179199 2004.518311,1563.169800   C2005.895874,1566.074341 2006.889160,1569.470947 2006.918213,1572.652466   C2007.057983,1587.966187 2006.846924,1603.283936 2006.582031,1618.597168   C2006.568481,1619.379028 2004.902222,1620.132324 2002.717285,1620.428467  z"/>
<path fill="#FFFFFF" opacity="1.000000" stroke="none" d=" M3663.493652,1507.501587   C3646.341797,1496.319702 3639.802490,1480.951538 3643.140137,1461.313599   C3644.540527,1453.072998 3641.187256,1444.405518 3644.248291,1434.757568   C3658.249268,1447.974854 3672.809570,1458.315308 3684.948975,1472.512085   C3679.195801,1484.925049 3673.166016,1496.582275 3663.493652,1507.501587  z"/>
<path fill="#FFFFFF" opacity="1.000000" stroke="none" d=" M2864.558594,1616.318115   C2879.479980,1629.654785 2890.482910,1643.961670 2895.924072,1663.612183   C2885.654541,1666.745605 2875.918701,1665.561890 2867.207520,1665.158203   C2857.026611,1651.615601 2847.269043,1638.636108 2837.250732,1625.309937   C2842.377197,1620.526978 2847.654541,1615.603394 2853.791748,1609.877441   C2857.133057,1611.748779 2860.364502,1613.558716 2864.558594,1616.318115  z"/>
<path fill="#FFFFFF" opacity="1.000000" stroke="none" d=" M1828.190918,1581.288086   C1828.265381,1577.109253 1828.399536,1574.521729 1828.577271,1571.095215   C1834.094727,1571.370117 1839.096069,1571.708740 1844.103027,1571.842651   C1848.703125,1571.965820 1853.308960,1571.868774 1859.282593,1571.868774   C1862.555786,1578.384155 1866.051147,1585.383545 1869.584595,1592.363403   C1873.115234,1599.338013 1876.684082,1606.293091 1880.304443,1613.390503   C1861.932495,1619.286865 1845.907227,1616.421021 1834.055664,1604.888428   C1831.436768,1602.340088 1829.701172,1598.362671 1828.781372,1594.733398   C1827.829712,1590.978516 1828.365601,1586.846436 1828.190918,1581.288086  z"/>
<path fill="#FFFFFF" opacity="1.000000" stroke="none" d=" M2878.827148,1340.273926   C2875.679688,1334.854004 2873.647461,1330.060303 2878.545166,1326.802856   C2887.255371,1321.009766 2896.367920,1315.780151 2905.576172,1310.803711   C2908.203369,1309.383789 2911.741943,1309.650757 2915.776123,1308.995850   C2918.183594,1320.769165 2917.354980,1330.662231 2908.528320,1338.404785   C2899.774658,1346.083374 2890.069092,1347.705566 2878.827148,1340.273926  z"/>
<path fill="#FFFFFF" opacity="1.000000" stroke="none" d=" M2734.265625,1328.674927   C2733.053223,1322.823364 2732.431641,1318.337524 2731.621338,1312.489746   C2735.934082,1311.830933 2739.919434,1309.967529 2742.942871,1310.979370   C2755.444336,1315.163452 2765.104248,1323.924561 2775.990723,1330.897949   C2764.346680,1346.345093 2754.314941,1348.539429 2742.188232,1339.158936   C2739.188477,1336.838379 2737.271484,1333.117798 2734.265625,1328.674927  z"/>
<path fill="#FFFFFF" opacity="1.000000" stroke="none" d=" M1847.797607,1418.668091   C1843.284058,1428.143555 1840.079102,1436.840210 1832.290405,1443.016357   C1827.189819,1429.202148 1826.378296,1398.605591 1830.494873,1374.589355   C1840.130249,1388.294189 1844.631836,1402.468018 1847.797607,1418.668091  z"/>
<path fill="#FFFFFF" opacity="1.000000" stroke="none" d=" M2808.184570,1463.408691   C2809.804932,1466.404541 2810.717285,1468.135620 2812.315186,1471.167603   C2808.177002,1474.843018 2803.875977,1478.853271 2799.341553,1482.579590   C2797.911133,1483.755005 2795.856201,1484.170654 2793.992676,1484.974976   C2786.479492,1472.969116 2790.386475,1461.037598 2793.176514,1447.456299   C2796.458984,1449.295044 2799.496582,1450.178345 2801.264404,1452.181885   C2803.817871,1455.076660 2805.451172,1458.783447 2808.184570,1463.408691  z"/>
<path fill="#FFFFFF" opacity="1.000000" stroke="none" d=" M2872.705078,1596.657593   C2875.084717,1593.476196 2877.335938,1591.624023 2880.110840,1589.341187   C2884.749756,1595.482300 2884.002197,1600.854492 2882.151611,1607.721680   C2878.587402,1604.097778 2875.582031,1601.042358 2872.705078,1596.657593  z"/>
<path fill="#FFFFFF" opacity="1.000000" stroke="none" d=" M2769.017090,1592.226929   C2772.020264,1592.254639 2774.251953,1593.234497 2777.966797,1594.865479   C2775.045166,1599.261597 2772.762695,1602.695557 2770.389404,1606.266479   C2765.226807,1602.046509 2767.963379,1597.457397 2769.017090,1592.226929  z"/>

<path fill="#FFFFFF" opacity="1.000000" stroke="none" d=" M2939.514648,1851.193726   C2933.046875,1860.867310 2925.413818,1867.157349 2916.926025,1872.629639   C2892.203857,1888.568237 2860.157471,1885.071533 2839.881104,1869.712158   C2835.128418,1866.111938 2830.619873,1862.189575 2826.401123,1858.743530   C2818.962158,1858.961426 2815.087646,1864.054199 2810.595459,1867.778809   C2776.756348,1895.835327 2735.449219,1882.802856 2712.204590,1853.188354   C2706.105469,1845.418091 2701.666016,1836.252319 2697.092041,1827.402954   C2691.900635,1817.358032 2687.845459,1806.715576 2682.472656,1796.778320   C2678.712891,1789.824219 2673.823975,1783.423096 2668.987549,1777.121826   C2661.462646,1767.317383 2650.837402,1764.115112 2638.949951,1764.213745   C2629.448242,1764.292725 2624.223145,1768.370483 2621.606445,1777.567139   C2619.298584,1785.679932 2622.652832,1793.660034 2630.871582,1797.256348   C2634.219727,1798.721313 2638.697998,1799.179932 2642.208740,1798.295776   C2646.555176,1797.201416 2650.430420,1794.235840 2655.198730,1791.713745   C2662.320801,1795.646851 2665.657471,1802.741455 2668.909180,1809.852295   C2649.913330,1828.203735 2630.155029,1830.606812 2611.465088,1817.070068   C2585.753906,1798.447998 2588.056641,1758.175293 2616.000977,1743.150879   C2634.371826,1733.273560 2652.939209,1733.594360 2671.219238,1744.129150   C2690.490479,1755.234985 2703.094482,1771.912354 2712.038818,1791.840210   C2716.670410,1802.159424 2721.280762,1812.517212 2726.578125,1822.497925   C2729.984375,1828.916138 2733.915527,1835.340454 2738.839355,1840.615723   C2754.495361,1857.389038 2771.852051,1858.032104 2791.042480,1846.516479   C2795.944092,1843.575195 2799.472900,1838.345703 2803.296143,1834.505371   C2797.500732,1818.287476 2792.348389,1803.276245 2786.718262,1788.446045   C2784.844971,1783.511719 2782.216553,1778.700073 2779.107666,1774.433960   C2773.141113,1766.246704 2761.812500,1765.384766 2754.700684,1772.847046   C2750.286133,1777.479004 2747.106445,1783.287964 2742.979736,1789.124146   C2731.094727,1772.881836 2719.825195,1757.480591 2707.816650,1741.068970   C2709.547119,1740.403320 2711.669434,1738.886963 2713.798584,1738.877563   C2732.461426,1738.794800 2751.125000,1738.973022 2769.788574,1739.089478   C2790.295898,1739.217407 2803.457520,1749.709106 2810.581787,1768.374268   C2815.089600,1780.185059 2819.251465,1792.128174 2823.554688,1804.016846   C2828.158936,1816.737183 2835.100098,1828.011353 2844.697510,1837.549561   C2852.933594,1845.734253 2862.788574,1850.550171 2874.307129,1852.922485   C2888.893555,1855.926880 2900.864014,1851.769165 2910.264404,1841.057861   C2915.890625,1834.647095 2920.481445,1827.121948 2924.486084,1819.542358   C2930.376709,1808.393311 2935.232422,1796.702026 2940.701904,1785.324707   C2949.286621,1767.466064 2961.388184,1752.613525 2979.177979,1743.318970   C2998.387695,1733.282471 3017.412354,1734.616455 3036.358154,1744.972046   C3058.977783,1757.335815 3065.442139,1800.184814 3037.170654,1817.428101   C3017.407715,1829.482178 2997.993408,1827.789917 2980.951904,1809.480957   C2984.739746,1803.906494 2988.707031,1798.067993 2992.933838,1791.847290   C2997.913574,1794.465454 3001.770508,1797.220825 3006.068848,1798.605835   C3015.795654,1801.740356 3025.827881,1796.046997 3027.963623,1786.779053   C3030.718018,1774.826782 3024.096436,1764.871216 3012.474365,1763.655273   C3001.191895,1762.474976 2991.618652,1766.071045 2983.297119,1773.791992   C2974.252441,1782.184326 2969.223389,1793.015991 2963.871826,1803.758667   C2956.162598,1819.234863 2948.166504,1834.568115 2939.514648,1851.193726  z"/>
<path fill="#FFFFFF" opacity="1.000000" stroke="none" d=" M2931.248535,1754.101807   C2922.803711,1766.068359 2915.387939,1776.867188 2907.289307,1788.660278   C2903.445557,1783.638916 2900.555908,1779.463989 2897.262939,1775.636108   C2886.850586,1763.532349 2875.031982,1764.684082 2867.099121,1778.736694   C2861.501709,1788.652466 2857.297363,1799.007446 2858.268311,1810.897339   C2858.563721,1814.511108 2857.195801,1818.260864 2856.231689,1824.124023   C2852.336914,1820.824341 2849.721680,1819.177734 2847.846436,1816.916992   C2841.323486,1809.052124 2837.880371,1799.689087 2836.092529,1789.791626   C2831.910645,1766.641602 2848.285400,1742.982544 2870.716553,1739.403809   C2880.828125,1737.790527 2926.978760,1738.410645 2940.237305,1740.394775   C2940.723877,1746.578369 2935.039551,1748.881470 2931.248535,1754.101807  z"/>
<path fill="#FFFFFF" opacity="1.000000" stroke="none" d=" M2808.988770,1892.317261   C2814.494873,1888.582153 2818.741455,1885.609131 2823.430176,1882.326782   C2832.099609,1887.641113 2840.392334,1892.724487 2849.505127,1898.310669   C2842.318359,1905.625366 2832.978516,1909.062988 2824.570557,1915.777832   C2816.550537,1910.484131 2808.560547,1905.210327 2799.341553,1899.125122   C2802.917725,1896.547607 2805.323730,1894.813477 2808.988770,1892.317261  z"/>
</svg>